# xmcd
#
# Track frame offsets: 
#        150
#        13990
#        29474
#        42624
#        55920
#        70018
#        84346
#
# Disc length: 1326 seconds
#
# Revision: 0
# Processed by: cddbd v1.5.2PL0 Copyright (c) Steve Scherf et al.
# Submitted via: ExactAudioCopyFreeDBPlugin 1.0
#
DISCID=59052c07
DTITLE=James Barker Band - Singles Only
DYEAR=2019
DGENRE=Country
TTITLE0=There's A Drink For That
TTITLE1=Slow Down Town
TTITLE2=She's A Hit
TTITLE3=If It Weren't For Girls
TTITLE4=Keep It Simple
TTITLE5=I Want You In It
TTITLE6=Good Together
EXTD=
EXTT0=
EXTT1=
EXTT2=
EXTT3=
EXTT4=
EXTT5=
EXTT6=
PLAYORDER=
